<svg width="26" height="107" viewBox="0 0 26 107" fill="none" xmlns="http://www.w3.org/2000/svg">
<path d="M22.7945 35.0412C22.9797 35.8305 23.1811 36.6037 23.3261 37.3849C23.4147 37.8762 23.4549 38.3836 23.4549 38.883C23.4549 39.3179 23.3422 39.7528 23.3019 40.1958C23.2455 40.7757 23.1005 41.3314 22.867 41.863C22.6737 42.3059 22.4562 42.7408 22.2146 43.1677C21.8602 43.7879 21.53 44.4322 21.3367 45.1168C21.1515 45.7691 20.9904 46.4376 20.8374 47.0981C20.6119 48.0887 20.636 49.1035 20.6763 50.1102C20.7005 50.674 20.8132 51.2378 20.926 51.7855C21.1756 52.9936 21.4495 54.2017 21.7314 55.4017C21.8924 56.0782 22.0938 56.7387 22.2629 57.4152C22.4723 58.2287 22.6656 59.0421 22.875 59.8636C22.9717 60.2502 23.0925 60.6287 23.1811 61.0153C23.3019 61.5308 23.4066 62.0543 23.5113 62.5778C23.6321 63.1899 23.7449 63.802 23.8496 64.4141C23.9221 64.8168 23.9784 65.2276 24.0187 65.6383C24.0509 65.9605 24.059 66.2907 24.067 66.6209C24.0831 67.2733 23.9301 67.9015 23.8093 68.5297C23.6241 69.4559 23.3261 70.3499 23.0039 71.2358C22.7623 71.8963 22.5046 72.5486 22.2146 73.1849C21.9408 73.789 21.5945 74.3608 21.3126 74.9568C21.1918 75.2145 21.1193 75.5044 21.0629 75.7863C20.9018 76.5998 20.9099 77.4374 20.934 78.2589C20.9582 78.9838 21.0468 79.7006 21.2803 80.3932C21.6025 81.3677 21.9408 82.3423 22.2951 83.3088C22.4884 83.8323 22.7462 84.3236 22.9717 84.839C23.3824 85.7894 23.7932 86.7398 24.0831 87.7385C24.2603 88.3506 24.4697 88.9546 24.6227 89.5748C24.7113 89.905 24.7355 90.2593 24.7597 90.6057C24.7838 90.9681 24.7838 91.3305 24.7597 91.693C24.7194 92.2728 24.5825 92.8366 24.3328 93.3682C24.059 93.9561 23.769 94.536 23.471 95.1159C23.2214 95.5991 22.9556 96.0985 22.9073 96.6381C22.8509 97.218 22.867 97.8059 22.9073 98.3858C22.9314 98.8207 23.0281 99.2556 23.1167 99.6825C23.2052 100.093 23.3341 100.504 23.4308 100.907C23.6563 101.825 24.067 102.662 24.5664 103.452C24.8241 103.854 25.1624 104.209 25.4604 104.595C25.5651 104.732 25.6778 104.869 25.7423 105.03C25.8792 105.377 25.6859 105.804 25.3557 105.997C25.114 106.134 24.8966 106.295 24.6147 106.359C24.3328 106.424 24.1315 106.359 23.9784 106.166C23.6321 105.731 23.2858 105.296 22.9878 104.837C22.6737 104.354 22.3918 103.838 22.1341 103.323C21.7636 102.59 21.5059 101.809 21.3206 101.003C21.2079 100.512 21.0871 100.021 20.9824 99.5295C20.934 99.2959 20.9099 99.0624 20.8938 98.8207C20.8696 98.3858 20.8293 97.9509 20.8535 97.524C20.8938 96.9119 20.934 96.2918 21.0709 95.7038C21.2079 95.1159 21.4897 94.5602 21.7958 94.0286C21.9891 93.6903 22.1743 93.3521 22.3515 93.0058C22.5448 92.6192 22.6898 92.2165 22.714 91.7735C22.722 91.6044 22.7462 91.4352 22.7542 91.258C22.7864 90.6379 22.6415 90.0419 22.4884 89.4539C22.3032 88.7291 22.0616 88.0203 21.82 87.3116C21.6589 86.8445 21.4575 86.3854 21.2642 85.9263C20.9743 85.2337 20.6602 84.5491 20.3783 83.8484C20.1367 83.2363 19.9031 82.6081 19.7018 81.9799C19.4843 81.3194 19.291 80.6509 19.1058 79.9744C19.0413 79.7247 19.0413 79.459 19.0172 79.2012C18.985 78.7985 18.9447 78.4039 18.9366 78.0012C18.9366 77.6226 18.9366 77.2441 18.9769 76.8736C19.0413 76.2454 19.1541 75.6253 19.2266 75.0051C19.2991 74.3205 19.7098 73.797 20.0239 73.2332C20.2253 72.8708 20.4186 72.5084 20.5796 72.1218C20.8293 71.5338 21.0629 70.9298 21.2723 70.3257C21.4736 69.7459 21.675 69.166 21.82 68.578C22.0052 67.8048 22.1904 67.0236 22.126 66.2182C22.0857 65.7591 22.0133 65.3001 21.9488 64.849C21.9005 64.5188 21.8441 64.1886 21.7877 63.8584C21.6992 63.3349 21.6347 62.8114 21.5139 62.2959C21.2803 61.3294 21.0226 60.3791 20.7729 59.4206C20.5072 58.422 20.2414 57.4152 19.9756 56.4165C19.8548 55.9413 19.742 55.4661 19.6293 54.991C19.4601 54.2903 19.283 53.5896 19.1219 52.8808C19.0413 52.5103 19.0011 52.1398 18.9447 51.7613C18.8722 51.2459 18.7836 50.7304 18.7353 50.2149C18.7031 49.8122 18.7353 49.4095 18.7353 49.0068C18.7272 48.1692 18.8722 47.3558 19.0252 46.5343C19.1702 45.7933 19.4038 45.0765 19.6454 44.3678C19.7581 44.0295 19.8387 43.6832 19.9837 43.361C20.1689 42.9502 20.4186 42.5637 20.6199 42.161C20.8293 41.7422 21.0226 41.3233 21.2079 40.8965C21.2884 40.7032 21.3448 40.4938 21.3689 40.2844C21.4253 39.8334 21.4736 39.3823 21.4978 38.9313C21.5381 38.2709 21.4173 37.6346 21.2481 36.9984C21.0629 36.3218 20.926 35.6292 20.7327 34.9607C20.5474 34.3083 20.338 33.664 20.1206 33.0277C19.8709 32.2948 19.581 31.578 19.3474 30.8451C19.0897 30.0397 18.8641 29.2263 18.6547 28.4128C18.542 27.9779 18.5098 27.5269 18.4373 27.0759C18.3165 26.3268 18.2198 25.5859 18.2279 24.8288C18.2279 24.2328 18.2037 23.6368 18.2279 23.0328C18.252 22.469 18.3245 21.9052 18.397 21.3414C18.5178 20.4072 18.6709 19.4809 18.9286 18.5628C19.1944 17.6205 19.4601 16.6782 19.6534 15.7197C19.7662 15.1801 19.742 14.6163 19.7501 14.0606C19.7501 13.6418 19.7098 13.2149 19.6695 12.7961C19.5971 12.1438 19.581 11.4753 19.3313 10.8551C19.1944 10.5169 19.0333 10.1866 18.9125 9.84032C18.7353 9.35709 18.5742 8.85774 18.4212 8.36645C18.1796 7.60937 17.9299 6.85229 17.7205 6.08717C17.5755 5.57977 17.495 5.06432 17.3822 4.54886C17.197 3.71124 17.495 2.94611 17.7688 2.18903C17.9138 1.78633 18.1312 1.40779 18.3004 1.0051C18.4856 0.578232 18.8722 0.368835 19.2266 0.127212C19.2427 0.111107 19.283 0.127212 19.3071 0.127212C19.5648 0.143318 19.8306 0.119163 20.0722 0.183594C20.2253 0.223869 20.3622 0.384941 20.4911 0.505752C20.781 0.77153 20.7971 1.18229 20.4991 1.44002C19.8789 1.97963 19.6776 2.72866 19.4601 3.47768C19.3152 3.97703 19.3877 4.47637 19.5165 4.95961C19.6937 5.60393 19.9192 6.2402 20.1125 6.88451C20.2736 7.42413 20.4025 7.97986 20.5716 8.51948C20.7005 8.93828 20.8615 9.34904 21.0387 9.75173C21.2723 10.2994 21.4736 10.8551 21.5461 11.4511C21.6106 11.9827 21.6669 12.5223 21.7153 13.0619C21.7555 13.5693 21.7877 14.0687 21.7958 14.5761C21.8119 15.3009 21.6669 16.0016 21.4897 16.7023C21.2401 17.6446 20.9985 18.595 20.7327 19.5373C20.5958 20.0125 20.5233 20.4957 20.483 20.987C20.4427 21.4783 20.3541 21.9616 20.3219 22.4448C20.2655 23.1616 20.2172 23.8784 20.1931 24.6033C20.1689 25.2959 20.2494 25.9805 20.4025 26.6651C20.5394 27.2691 20.628 27.8812 20.7971 28.4772C21.0468 29.3954 21.3367 30.3055 21.6267 31.2156C21.8924 32.0371 22.1824 32.8425 22.4482 33.656C22.6012 34.1311 22.7059 34.6144 22.8428 35.1057L22.7945 35.0412Z" fill="#4965FA"/>
<path d="M16.8264 86.4498C17.0922 86.9572 17.3499 87.4485 17.5996 87.9478C17.6479 88.0525 17.6721 88.1733 17.6882 88.2942C17.7043 88.4391 17.6882 88.5922 17.6882 88.7371C17.7043 88.9626 17.6399 89.1157 17.4707 89.2848C17.2452 89.5184 16.9955 89.7439 16.7056 89.7922C16.2546 89.8647 15.7874 89.8244 15.3284 89.8244C15.1592 89.8244 14.982 89.8083 14.8129 89.7841C14.2813 89.7036 13.7417 89.6392 13.2182 89.5264C12.437 89.3573 11.6477 89.1801 10.8745 88.9707C10.2302 88.8016 9.61003 88.5438 8.96572 88.415C8.69188 88.3586 8.48248 88.1975 8.20864 88.1572C7.95091 88.117 7.70124 87.9881 7.45157 87.8995C6.18709 87.4404 4.92262 86.9894 3.65814 86.5303C3.14269 86.3451 2.62723 86.184 2.11178 85.9988C1.97486 85.9504 1.84599 85.8619 1.71713 85.7813C1.52383 85.6605 1.50773 85.4592 1.53994 85.2659C1.62854 84.7746 1.79767 84.3397 2.28091 84.09C2.41783 84.0175 2.49837 83.8886 2.4742 83.7034C2.40977 83.0832 2.3534 82.4631 2.29702 81.8429C2.28091 81.6577 2.2648 81.4724 2.25675 81.2872C2.24064 80.9811 2.22453 80.6751 2.21648 80.369C2.19232 79.7972 2.15205 79.2334 2.13594 78.6616C2.11983 78.2508 2.11178 77.832 2.13594 77.4213C2.15205 77.2441 2.24064 77.0589 2.34534 76.9139C2.58696 76.5756 2.84469 76.2293 3.28766 76.1165C3.45679 76.0682 3.63398 76.0199 3.79506 76.0279C3.89171 76.0279 3.98835 76.1488 4.06084 76.2373C4.14138 76.334 4.18165 76.4387 4.33467 76.4548C4.383 76.4548 4.43938 76.6078 4.45548 76.6964C4.4877 76.8897 4.4877 77.083 4.50381 77.2763C4.51186 77.4132 4.54408 77.5501 4.54408 77.6871C4.54408 78.0334 4.52797 78.3797 4.54408 78.726C4.58435 79.3301 4.65683 79.9261 4.71321 80.5221C4.74543 80.8362 4.77764 81.1503 4.79375 81.4644C4.82597 82.1973 4.85818 82.9302 4.87429 83.6631C4.87429 83.8403 4.80986 84.0336 4.74543 84.2027C4.67294 84.4121 4.681 84.5007 4.88235 84.5732C5.76023 84.9115 6.64617 85.2417 7.53211 85.5719C7.61265 85.6041 7.69319 85.6363 7.77373 85.6525C7.814 85.6686 7.86232 85.6605 7.91064 85.6605C7.91064 85.6122 7.9187 85.5639 7.91064 85.5155C7.76567 84.8632 7.57238 84.2108 7.48378 83.5504C7.37908 82.7852 7.17773 82.0523 7.01665 81.2952C6.94417 80.9731 6.92806 80.6348 6.87973 80.3127C6.85557 80.1516 6.80725 79.9905 6.77503 79.8294C6.75892 79.7408 6.74282 79.6522 6.75892 79.5636C6.77503 79.4428 6.80725 79.3301 6.83946 79.2173C6.92 78.9918 7.12135 78.8871 7.30659 78.7744C7.37103 78.7341 7.45962 78.7099 7.48378 78.6535C7.55627 78.4925 7.68513 78.4764 7.83816 78.4764C7.95897 78.4764 8.08783 78.4119 8.20864 78.4119C8.29723 78.4119 8.39388 78.4361 8.46637 78.4844C8.53885 78.5327 8.56302 78.6374 8.6355 78.6858C8.98182 78.9032 8.97377 79.2737 9.04626 79.6039C9.22344 80.4254 9.37647 81.2469 9.55366 82.0684C9.64225 82.5033 9.74695 82.9383 9.85971 83.3651C9.96441 83.7759 10.1094 84.1866 10.2141 84.5974C10.3268 85.0403 10.4074 85.4833 10.496 85.9263C10.5282 86.0874 10.5604 86.2565 10.5926 86.4176C10.6329 86.6511 10.8262 86.6834 11.0114 86.7236C11.5752 86.8686 12.139 87.0216 12.7028 87.1585C13.2746 87.2955 13.8464 87.4163 14.4183 87.529C14.531 87.5532 14.6599 87.529 14.7807 87.529C14.7404 87.4163 14.7082 87.2955 14.6599 87.1827C14.2813 86.2646 13.8948 85.3464 13.5162 84.4282C13.0652 83.349 12.7833 82.2215 12.4611 81.102C12.3403 80.6831 12.2437 80.2402 12.2115 79.8053C12.1873 79.5556 12.3081 79.2898 12.3725 79.024C12.3725 78.9918 12.4289 78.9757 12.4611 78.9435C12.743 78.6777 13.0088 78.3717 13.4598 78.3878C13.8384 78.4039 14.0961 78.5972 14.3216 78.8791C14.3699 78.9354 14.3699 79.0321 14.3699 79.1126C14.4022 79.467 14.3941 79.8294 14.4666 80.1838C14.5632 80.667 14.7082 81.1422 14.8532 81.6174C15.0465 82.2376 15.2559 82.8497 15.4814 83.4618C15.6666 83.9531 15.8921 84.4363 16.1096 84.9195C16.3351 85.4269 16.5767 85.9263 16.8264 86.4417L16.8264 86.4498Z" fill="#4965FA"/>
<path d="M17.1647 94.528C17.4063 94.6005 17.6399 94.6488 17.8654 94.7213C17.9299 94.7455 17.9782 94.8179 18.0265 94.8824C18.107 94.9871 18.1795 95.0998 18.2681 95.2045C18.4695 95.4381 18.3809 96.0421 18.1393 96.2193C17.8896 96.4046 17.648 96.614 17.4063 96.8153C17.3258 96.8798 17.2775 96.8878 17.1808 96.8556C16.6251 96.7106 16.0533 96.5979 15.4895 96.469C14.8693 96.324 14.2492 96.1871 13.629 96.0421C12.88 95.865 12.139 95.6797 11.39 95.4864C10.8182 95.3414 10.2464 95.1723 9.67452 95.0193C9.6262 95.0032 9.58593 94.9951 9.54566 94.979C9.45707 94.9549 9.37653 94.9307 9.28793 94.9065C9.28793 95.0193 9.26377 95.132 9.27988 95.2448C9.34431 95.6717 9.42485 96.0905 9.48928 96.5173C9.52955 96.8314 9.57787 97.1455 9.56982 97.4596C9.55371 97.8221 9.87587 98.1362 10.1255 98.2167C10.7538 98.4261 11.382 98.6355 12.0102 98.8449C12.6223 99.0463 13.2263 99.2637 13.8384 99.449C14.3619 99.6101 14.8935 99.7389 15.4251 99.8758C15.6747 99.9403 15.9325 99.9886 16.1821 100.045C16.3191 100.077 16.4721 100.069 16.601 100.134C16.9553 100.303 17.1567 100.842 17.1003 101.221C17.0278 101.728 16.6332 101.994 16.3191 102.316C16.2627 102.373 16.1097 102.365 16.013 102.332C15.3848 102.155 14.7646 101.97 14.1364 101.785C13.1619 101.503 12.1874 101.229 11.2209 100.931C10.343 100.657 9.47317 100.351 8.60334 100.069C8.40199 100.005 8.18454 99.9886 7.99124 99.9081C7.58854 99.747 7.21 99.5456 6.8073 99.3765C6.04218 99.0624 5.26899 98.7805 4.51192 98.4664C3.89176 98.2087 3.28771 97.9268 2.67561 97.6691C2.47426 97.5805 2.27291 97.516 2.06351 97.4516C1.50778 97.2825 1.41919 97.0167 1.47557 96.5012C1.49973 96.2435 1.63665 95.9938 1.7494 95.7441C1.86216 95.4864 2.11183 95.4059 2.35345 95.3253C2.46621 95.2851 2.58702 95.277 2.69977 95.2367C3.02193 95.124 3.27966 95.3012 3.54544 95.43C4.04479 95.6717 4.51997 95.9455 5.02737 96.171C5.55088 96.4046 6.09855 96.5979 6.63012 96.8153C6.75898 96.8637 6.87979 96.9361 7.00865 96.9684C7.04892 96.9764 7.15363 96.8878 7.15363 96.8475C7.13752 96.5818 7.1053 96.324 7.06503 96.0583C7.01671 95.7361 6.96033 95.422 6.90395 95.1079C6.86368 94.8421 6.83147 94.5763 6.76703 94.3105C6.75093 94.2461 6.67039 94.1656 6.60595 94.1414C5.85693 93.9078 5.10791 93.6984 4.36695 93.4407C3.6582 93.191 2.96555 92.893 2.26486 92.6192C2.0474 92.5306 1.80578 92.4823 1.60443 92.3695C1.47557 92.297 1.33865 92.1521 1.29838 92.0152C1.09703 91.25 1.53194 90.5332 2.28902 90.356C2.57091 90.2916 2.86891 90.3158 3.1669 90.4527C3.85955 90.7668 4.56024 91.0487 5.26899 91.3225C5.84888 91.548 6.44487 91.7413 7.02476 91.9507C7.25833 92.0393 7.47578 91.991 7.7013 91.9105C7.806 91.8702 7.94292 91.8863 8.05567 91.8863C8.48253 91.8702 8.74026 92.1199 8.9255 92.4662C9.02215 92.6434 9.23155 92.5548 9.36042 92.6514C9.40069 92.5467 9.45707 92.4501 9.47317 92.3454C9.51344 92.1279 9.52955 91.9024 9.56982 91.6769C9.56982 91.6447 9.64231 91.6125 9.68258 91.5883C9.69868 91.6286 9.7309 91.6608 9.7309 91.701C9.7309 91.9427 9.7309 92.1843 9.7309 92.4259C9.7309 92.732 9.78728 92.8044 10.0611 92.8689C10.6088 93.0058 11.1645 93.1588 11.7122 93.2957C12.3082 93.4407 12.9122 93.5776 13.5082 93.7226C14.1848 93.8837 14.8532 94.0689 15.5298 94.2219C15.8761 94.3025 16.2305 94.3347 16.5848 94.3991C16.7701 94.4313 16.9634 94.4797 17.1567 94.5361L17.1647 94.528Z" fill="#4965FA"/>
<path d="M13.7741 19.7145C13.323 19.5937 12.8801 19.5051 12.4613 19.3521C11.4062 18.9655 10.3592 18.5467 9.30409 18.152C9.27188 18.1359 9.20744 18.152 9.18328 18.1762C9.07053 18.2809 9.01415 18.2567 8.96582 18.1118C8.92555 17.999 8.84501 17.9346 8.7081 17.999C8.66783 18.0232 8.59534 18.0232 8.55507 17.999C8.44232 17.9265 8.37788 17.991 8.3054 18.0634C8.18459 18.1843 8.05572 18.1681 7.95102 18.0232C7.93491 17.999 7.91881 17.9587 7.89464 17.9426C7.7094 17.7977 7.54027 17.6527 7.43557 17.4191C7.37919 17.2983 7.16979 17.2419 7.01676 17.1694C6.19525 16.7587 5.36569 16.3721 4.54419 15.9533C3.93208 15.6392 3.33609 15.2687 2.72399 14.9627C2.60318 14.9063 2.40183 15.0029 2.24075 15.0351C2.02329 15.0754 1.81389 15.164 1.59643 15.156C1.48367 15.156 1.35481 15.019 1.25816 14.9143C0.750761 14.3747 0.468872 13.7062 0.251414 13.0136C0.0822803 12.4579 -0.0143675 11.886 0.00174044 11.3142C0.0339563 10.0497 0.3239 8.84969 0.95211 7.73824C1.30649 7.11002 1.70113 6.50598 2.2488 6.02274C2.61928 5.70058 3.00588 5.37842 3.42468 5.11263C3.64214 4.97572 3.93208 4.9435 4.19787 4.88712C4.665 4.77437 5.13213 4.78242 5.61537 4.87907C6.19525 4.99182 6.67849 5.28982 7.12952 5.63614C7.85437 6.19187 8.36983 6.94089 8.82085 7.73018C9.35241 8.66444 9.64236 9.67119 9.90814 10.7021C10.0531 11.2498 10.1337 11.7974 10.1578 12.3612C10.182 13.0378 10.2142 13.7143 10.19 14.3828C10.1739 14.8418 10.0612 15.3009 9.98868 15.76C9.95646 15.9775 10.0128 16.0741 10.2142 16.1546C10.9471 16.4365 11.672 16.7426 12.4129 17.0003C13.1378 17.25 13.8788 17.4674 14.6197 17.6849C14.9097 17.7654 15.2077 17.7977 15.5057 17.8621C15.6909 17.9024 15.7714 18.0473 15.8117 18.2245C15.8359 18.3373 15.8842 18.45 15.9003 18.5708C15.9164 18.6836 15.9003 18.8044 15.8842 18.9172C15.8842 18.9977 15.852 19.0782 15.852 19.1588C15.852 19.4487 15.6909 19.6662 15.409 19.7306C15.1513 19.795 14.8936 19.8756 14.6278 19.8917C14.4184 19.9078 14.2009 19.8434 13.9915 19.8031C13.919 19.787 13.8546 19.7548 13.766 19.7306M5.01937 7.02143C4.69721 6.87646 4.44754 6.99727 4.22203 7.22278C3.87571 7.57716 3.60992 7.98791 3.36025 8.41477C2.78842 9.39735 2.42599 10.4363 2.47431 11.5961C2.48237 11.9183 2.58707 12.176 2.90923 12.3048C2.99782 12.3371 3.06225 12.4095 3.14279 12.4498C3.18306 12.474 3.23944 12.482 3.28777 12.4981C3.28777 12.4498 3.29582 12.4015 3.28777 12.3532C3.27166 12.0793 3.2475 11.8055 3.23139 11.5317C3.23139 11.4994 3.27971 11.4592 3.31193 11.427C3.34414 11.4592 3.39247 11.4914 3.40052 11.5236C3.42468 11.6525 3.43274 11.7813 3.44885 11.9102C3.49717 12.2646 3.60992 12.5787 3.86765 12.8445C4.23008 13.2149 4.69721 13.4243 5.14824 13.6579C6.01001 14.1089 6.86373 14.5761 7.71746 15.0351C7.83827 15.0996 7.91075 15.0996 7.91881 14.9224C7.92686 14.6969 7.97518 14.4794 7.99935 14.2539C8.03156 13.8995 8.07989 13.5452 8.07989 13.1827C8.07989 12.8284 8.03962 12.4659 7.99935 12.1115C7.96713 11.7813 7.93491 11.4511 7.85437 11.129C7.66913 10.3477 7.35503 9.61481 6.96038 8.90606C6.64628 8.34228 6.28385 7.81878 5.79255 7.39997C5.58315 7.22278 5.34958 7.04559 5.02743 7.01338L5.01937 7.02143Z" fill="#4965FA"/>
<path d="M9.90811 64.9779C10.0611 64.9618 10.1981 64.9779 10.3108 64.9296C10.6732 64.7605 11.0679 64.8813 11.4384 64.8088C11.9941 64.7121 12.5579 64.6316 13.1136 64.5511C13.5324 64.4866 13.9432 64.4383 14.362 64.3819C14.5875 64.3497 14.6841 64.4947 14.7969 64.6397C14.8774 64.7524 14.958 64.8652 15.0385 64.986C15.0627 65.0262 15.0949 65.0826 15.0949 65.131C15.0949 65.292 15.0949 65.437 15.2157 65.5739C15.3284 65.7028 15.1593 66.0491 14.958 66.1699C14.9016 66.2021 14.8371 66.2424 14.7969 66.2827C14.6761 66.4035 14.5311 66.4599 14.362 66.5243C13.7982 66.7417 13.2102 66.7659 12.6304 66.8465C12.131 66.9189 11.6317 66.9592 11.1323 67.0156C10.8746 67.0478 10.6169 67.0881 10.3591 67.0961C10.0611 67.1122 9.9806 67.2089 10.045 67.5069C10.1014 67.7566 10.1336 68.0062 10.1739 68.2639C10.2303 68.6666 10.3028 69.0693 10.343 69.472C10.3994 69.9875 10.4961 70.511 10.3994 71.0345C10.3833 71.1151 10.5041 71.2439 10.5846 71.3084C10.9229 71.5661 11.2773 71.7996 11.6156 72.0493C12.1149 72.4198 12.5981 72.8145 13.1055 73.1769C13.4358 73.4104 13.774 73.6521 14.1365 73.8051C14.4908 73.9581 14.7808 74.1514 15.0224 74.4414C15.1029 74.538 15.1996 74.6508 15.2076 74.7635C15.2479 75.1823 15.3848 75.6333 14.9257 75.9394C14.7808 76.036 14.66 76.181 14.523 76.2938C14.3136 76.471 13.774 76.4871 13.5163 76.326C13.1378 76.0924 12.7592 75.8508 12.3887 75.6011C11.8008 75.2065 11.2451 74.7877 10.7377 74.2883C10.343 73.9017 9.892 73.5715 9.46514 73.2172C9.12687 72.9433 8.78055 72.6695 8.44229 72.4037C8.01543 72.0654 7.58856 71.7272 7.16976 71.3808C6.92814 71.1795 6.69457 70.962 6.45295 70.7526C5.98582 70.3499 5.51064 69.9553 5.0435 69.5526C4.78578 69.3351 4.5361 69.1016 4.27838 68.8761C3.86762 68.5297 3.46492 68.1834 3.04612 67.8532C2.73201 67.6035 2.43401 67.3297 2.07964 67.1606C1.63667 66.9512 1.63667 66.5726 1.54808 66.1941C1.44337 65.735 1.82191 65.5981 2.04742 65.3565C2.4018 64.986 2.86087 64.986 3.3119 64.9779C3.87568 64.9779 4.43946 65.0343 4.99518 65.0585C5.86501 65.0907 6.72679 65.131 7.59662 65.131C7.81407 65.131 8.04764 65.131 8.2651 64.9538C8.41812 64.8249 8.74834 64.7927 8.93358 64.8732C9.25574 65.0182 9.56984 64.9779 9.91616 64.9779M7.08116 67.3539C6.79122 67.3539 6.50128 67.3539 6.21133 67.3539C6.13885 67.3539 6.0422 67.4022 6.00998 67.4586C5.98582 67.4988 6.03414 67.6035 6.07441 67.6518C6.1469 67.7404 6.2516 67.8049 6.3402 67.8774C6.8476 68.3123 7.355 68.7472 7.8624 69.1821C7.89461 69.2143 7.94294 69.2304 7.97516 69.2546C7.97516 69.2063 7.99932 69.1579 7.99932 69.1177C7.97515 68.6505 7.94294 68.1754 7.91072 67.7082C7.91072 67.6196 7.91072 67.523 7.8624 67.4505C7.82213 67.3861 7.73354 67.3055 7.66105 67.3055C7.48386 67.2975 7.30667 67.3297 7.08116 67.3377L7.08116 67.3539Z" fill="#4965FA"/>
<path d="M6.11465 45.7289C5.12401 45.3503 4.13337 44.996 3.16689 44.5933C2.90916 44.4886 2.80446 44.553 2.64338 44.706C2.35343 44.9718 1.99101 45.0846 1.62052 45.2134C1.31447 45.3181 0.831232 45.0443 0.718476 44.6496C0.68626 44.553 0.629882 44.4563 0.613775 44.3516C0.589613 44.2389 0.597667 44.1261 0.589613 44.0134C0.557397 43.4335 0.541289 42.8456 0.501019 42.2657C0.468803 41.7905 0.412425 41.3234 0.380209 40.8482C0.339939 40.3166 0.307723 39.785 0.299669 39.2454C0.275507 38.1662 0.259399 37.087 0.259399 36.0077C0.259399 35.7178 0.283561 35.4117 0.347993 35.1298C0.428532 34.8157 0.637936 34.5983 0.984257 34.5258C1.04869 34.5097 1.11312 34.4533 1.1695 34.405C1.30642 34.2681 1.47555 34.2681 1.64468 34.2842C1.71717 34.2842 1.79771 34.3405 1.86214 34.3164C2.14403 34.2197 2.24068 34.4291 2.34538 34.6063C2.59505 35.0251 2.65143 35.4762 2.55478 35.9513C2.55478 35.9675 2.55478 35.9836 2.55478 35.9916C2.53868 36.7245 2.51451 37.4494 2.51451 38.1823C2.51451 38.7058 2.54673 39.2374 2.60311 39.7609C2.65949 40.3327 2.76419 40.8965 2.85278 41.4603C2.87694 41.5972 2.90111 41.7341 2.94138 41.871C2.96554 41.9435 3.02192 41.9918 3.07024 42.0563C3.12662 41.9757 3.22327 41.8952 3.22327 41.8146C3.22327 41.6133 3.17494 41.4119 3.15078 41.2106C3.15078 41.1623 3.14273 41.1059 3.15078 41.0656C3.15883 41.0254 3.1991 40.9931 3.22327 40.9529C3.25548 40.9931 3.31186 41.0254 3.31991 41.0656C3.36824 41.2992 3.37629 41.5489 3.45683 41.7744C3.6018 42.1529 3.7951 42.4831 4.23807 42.62C4.80185 42.7972 5.34146 43.0388 5.88913 43.2482C5.94551 43.2724 6.00189 43.2805 6.05827 43.2885C6.05827 43.2241 6.08243 43.1677 6.07438 43.1033C6.00994 42.6764 5.93746 42.2576 5.86497 41.8308C5.79249 41.4119 5.70389 41.0012 5.65557 40.5824C5.59114 40.0669 5.55892 39.5434 5.5267 39.0199C5.5106 38.7219 5.72805 38.5528 5.90524 38.3595C5.96162 38.295 6.018 38.2306 6.08243 38.1742C6.13075 38.134 6.19518 38.0695 6.25156 38.0695C6.39653 38.0856 6.53345 37.989 6.65426 37.9971C6.87172 38.0212 7.12139 38.0856 7.26636 38.2226C7.56436 38.5045 7.58047 38.9233 7.65296 39.3099C7.7335 39.7126 7.78987 40.1152 7.87041 40.5179C7.95901 40.9851 8.06371 41.4442 8.16841 41.9032C8.33754 42.6361 8.49862 43.3691 8.68387 44.0939C8.71608 44.2147 8.853 44.3516 8.97381 44.3919C9.66645 44.6496 10.3671 44.8993 11.0759 45.1168C11.8491 45.3584 12.6303 45.5759 13.4116 45.7933C13.8304 45.9141 14.2492 46.0833 14.676 46.1074C15.1995 46.1396 15.2398 46.5745 15.4331 46.8645C15.5378 47.0175 15.5136 47.2672 15.5136 47.4685C15.5136 47.5491 15.4412 47.6538 15.3767 47.7021C15.0465 47.9115 14.7163 48.1209 14.3619 48.282C14.2331 48.3384 14.0317 48.2981 13.8867 48.2578C12.727 47.9035 11.5672 47.541 10.4074 47.1625C9.0624 46.7276 7.7335 46.2765 6.38848 45.8255C6.29989 45.7933 6.21129 45.7691 6.11465 45.7289Z" fill="#4965FA"/>
<path d="M11.7766 36.9661C11.3417 36.797 10.9309 36.6278 10.5202 36.4587C10.2302 36.3379 9.94029 36.2171 9.65035 36.0963C8.98187 35.8224 8.32144 35.5486 7.65296 35.2667C7.27442 35.1056 6.89589 34.9285 6.5254 34.7593C5.84887 34.4452 5.17233 34.1231 4.50385 33.8009C4.10115 33.6076 3.72262 33.366 3.31992 33.1727C2.52257 32.8022 1.73328 32.3995 0.887613 32.1096C0.533238 31.9888 0.259403 31.723 0.194971 31.272C0.162755 31.0062 0.162755 30.7968 0.339942 30.6115C0.509076 30.4343 0.670156 30.241 0.863451 30.088C1.13729 29.8786 1.4675 29.8061 1.81382 29.8303C1.95879 29.8383 2.11182 29.8706 2.24068 29.9269C3.05413 30.3296 3.85953 30.7323 4.66493 31.1592C5.23677 31.4652 5.78444 31.8116 6.35627 32.1096C6.83951 32.3592 7.33886 32.5686 7.8382 32.7942C8.17647 32.9552 8.50668 33.1324 8.84495 33.2774C9.43289 33.5351 10.0289 33.7687 10.6168 34.0264C11.084 34.2278 11.5511 34.4372 12.0263 34.6305C12.4209 34.7996 12.8236 34.9526 13.2263 35.1137C13.2505 35.1218 13.2907 35.1137 13.3069 35.0976C13.323 35.0815 13.3391 35.0412 13.331 35.0171C13.0975 34.2358 12.8397 33.4626 12.6303 32.6733C12.4854 32.1337 12.4048 31.578 12.284 31.0303C12.1712 30.5149 12.0424 29.9994 11.9216 29.4759C11.8652 29.2343 11.8169 28.9927 11.7766 28.7511C11.7363 28.5094 11.841 28.3 11.9457 28.0987C12.0746 27.8571 12.2196 27.6154 12.3645 27.3819C12.4048 27.3094 12.4773 27.253 12.5417 27.2047C12.6545 27.1241 12.7672 27.0194 12.8961 26.9872C13.0733 26.9389 13.2746 26.8986 13.4438 26.9389C13.9109 27.0517 14.1203 27.2772 14.1123 27.7765C14.1123 28.0826 14.1284 28.3886 14.1123 28.6947C14.08 29.2987 14.2572 29.8625 14.378 30.4343C14.515 31.0787 14.676 31.723 14.8371 32.3673C15.0304 33.1485 15.2962 33.8975 15.5942 34.6466C15.8439 35.2748 16.2627 35.7822 16.6412 36.3218C16.7056 36.4104 16.7217 36.5312 16.7459 36.6359C16.7781 36.7889 16.8023 36.95 16.8345 37.1111C16.8667 37.2561 16.7459 37.4977 16.5848 37.5943C16.456 37.6749 16.3432 37.7957 16.2063 37.8521C15.8841 37.9809 15.5459 38.142 15.1915 38.0453C14.4586 37.844 13.7337 37.6104 13.0008 37.3769C12.5981 37.248 12.1954 37.095 11.7766 36.9581L11.7766 36.9661Z" fill="#4965FA"/>
<path d="M2.59514 57.7051C2.34547 57.6488 2.11995 57.6085 1.9025 57.528C1.71726 57.4635 1.51591 57.391 1.37899 57.2541C1.25012 57.1253 1.16153 56.9239 1.11321 56.7306C0.992397 56.2635 1.21791 55.8527 1.62866 55.5628C1.98304 55.3131 2.36963 55.2326 2.77233 55.2004C2.95757 55.1843 3.15892 55.3131 3.33611 55.4017C3.96432 55.7078 4.58447 56.038 5.22074 56.344C6.155 56.795 7.08926 57.238 8.03158 57.6649C8.82892 58.0273 9.63432 58.3817 10.4478 58.7119C11.0518 58.9616 11.68 59.1629 12.2921 59.3884C12.5257 59.469 12.7673 59.5495 13.0009 59.6139C13.0573 59.63 13.1539 59.622 13.1942 59.5817C13.2345 59.5415 13.2506 59.4448 13.2345 59.3884C13.0573 58.7763 12.8479 58.1723 12.6868 57.5521C12.5176 56.9078 12.3807 56.2474 12.2358 55.595C12.1311 55.1198 12.0264 54.6446 11.9378 54.1694C11.8572 53.7104 11.8008 53.2513 11.7203 52.7922C11.6317 52.2929 11.519 51.7935 11.4304 51.2942C11.382 51.0364 11.3579 50.7707 11.3418 50.5049C11.3418 50.4002 11.3579 50.2552 11.4304 50.1908C11.6478 49.9975 11.8814 49.8203 12.123 49.6592C12.3405 49.5142 12.574 49.3934 12.8398 49.4015C13.2345 49.4015 13.621 49.7961 13.6291 50.1988C13.6291 50.368 13.6855 50.5371 13.7177 50.7143C13.7177 50.7465 13.7419 50.7868 13.7338 50.8029C13.5727 51.0203 13.6452 51.262 13.6694 51.4794C13.7177 51.9063 13.8063 52.3251 13.8707 52.7519C13.9432 53.211 13.9915 53.6782 14.0882 54.1292C14.217 54.7493 14.3459 55.3775 14.5311 55.9896C14.7969 56.8756 15.0949 57.7535 15.409 58.6233C15.6023 59.1629 15.8681 59.6784 16.0695 60.218C16.2064 60.5804 16.295 60.959 16.3755 61.3455C16.3997 61.4502 16.3111 61.6194 16.2225 61.6999C15.997 61.8932 15.7392 62.0543 15.4896 62.2315C15.1755 62.457 14.8372 62.3684 14.4989 62.2879C13.9029 62.1509 13.3069 62.0221 12.719 61.861C11.5673 61.5469 10.4558 61.112 9.34438 60.669C8.69201 60.4113 8.06379 60.1052 7.41948 59.8233C6.46911 59.4126 5.52679 59.0018 4.57642 58.583C3.90794 58.2931 3.24751 57.9951 2.56292 57.6971L2.59514 57.7051Z" fill="#4965FA"/>
<path d="M10.5042 22.9441C11.0036 23.1133 11.4868 23.2985 11.9701 23.4515C12.5499 23.6368 13.1298 23.7979 13.7097 23.967C13.9352 24.0314 14.1688 24.0959 14.4024 24.1442C14.5393 24.1683 14.6762 24.1603 14.8131 24.1844C14.8936 24.1925 14.9903 24.2006 15.0386 24.2489C15.2319 24.4502 15.4252 24.6677 15.5943 24.8851C15.7715 25.1107 15.7071 25.3523 15.6185 25.5939C15.5943 25.6744 15.5943 25.763 15.6024 25.8436C15.6024 25.9563 15.5863 26.0449 15.4735 26.0932C15.2158 26.206 14.9742 26.359 14.7084 26.4476C14.5473 26.4959 14.354 26.4718 14.1849 26.4315C13.6936 26.3026 13.2104 26.1577 12.7271 26.0046C12.0103 25.7711 11.2935 25.5456 10.5848 25.2878C10.0049 25.0784 9.4411 24.8449 8.86927 24.6113C8.17663 24.3294 7.48399 24.0556 6.7994 23.7576C6.31616 23.5482 5.84097 23.3066 5.36579 23.0649C4.64898 22.6945 3.93218 22.3159 3.21537 21.9374C2.61132 21.6152 2.00728 21.3011 1.41934 20.9548C1.05691 20.7373 0.670314 20.5279 0.436749 20.1414C0.332047 19.9722 0.283723 19.3359 0.396479 19.2312C0.646152 19.0138 0.887772 18.7722 1.23409 18.6836C1.63679 18.5869 2.01533 18.5869 2.36971 18.8447C2.6677 19.0621 2.9657 19.2796 3.27981 19.4729C3.79526 19.7789 4.31877 20.0608 4.85033 20.3507C5.56714 20.7373 6.27589 21.132 7.01685 21.4864C7.71755 21.8246 8.44241 22.1065 9.15921 22.4126C9.60218 22.5978 10.0371 22.7831 10.5042 22.9683L10.5042 22.9441Z" fill="#4965FA"/>
<path d="M3.92407 55.3614C3.95629 55.3051 3.99656 55.2487 4.04488 55.2084C4.04488 55.2084 4.12542 55.2406 4.12542 55.2567C4.12542 55.4017 4.02877 55.3775 3.92407 55.3614Z" fill="#4965FA"/>
<path d="M9.51362 43.8442C9.45724 43.8442 9.40086 43.8281 9.35254 43.812L9.44919 43.6832C9.47335 43.7315 9.49751 43.7798 9.51362 43.8442Z" fill="#4965FA"/>
<path d="M10.1981 57.2944C10.1578 57.3347 10.1014 57.3669 10.0531 57.3991C10.037 57.3669 10.0209 57.3347 10.0048 57.2944C10.0692 57.2944 10.1336 57.2864 10.2061 57.2944L10.1981 57.2944Z" fill="#4965FA"/>
<path d="M21.9248 54.5319C21.957 54.6446 21.9006 54.6688 21.82 54.6446C21.7959 54.6446 21.7878 54.5882 21.7637 54.5641C21.812 54.548 21.8603 54.5399 21.9248 54.5319Z" fill="#4965FA"/>
<path d="M9.13501 100.456C9.19139 100.464 9.23166 100.488 9.27193 100.512L9.19139 100.593C9.16723 100.552 9.14306 100.504 9.13501 100.456Z" fill="#4965FA"/>
<path d="M3.53746 74.1111C3.56968 74.1594 3.57773 74.2077 3.57773 74.256L3.48914 74.256C3.48914 74.2077 3.50524 74.1594 3.52941 74.1111L3.53746 74.1111Z" fill="#4965FA"/>
<path d="M3.19114 64.6316C3.24752 64.6396 3.27973 64.6477 3.32 64.6638C3.29584 64.696 3.27973 64.7524 3.25557 64.7524C3.2153 64.7524 3.17503 64.7282 3.12671 64.7202C3.14282 64.6879 3.15087 64.6638 3.19114 64.6316Z" fill="#4965FA"/>
<path d="M2.72398 50.4001C2.7562 50.4485 2.76425 50.4968 2.76425 50.5451L2.67566 50.5451C2.67566 50.4968 2.69177 50.4485 2.71593 50.4001L2.72398 50.4001Z" fill="#4965FA"/>
<path d="M16.15 23.822C16.0936 23.8381 16.0453 23.8462 15.9969 23.8542C16.0131 23.822 16.0211 23.7737 16.0292 23.7737C16.0694 23.7737 16.1178 23.7979 16.15 23.822Z" fill="#4965FA"/>
<path d="M20.8214 21.2287C20.773 21.2287 20.7408 21.2045 20.7006 21.1884C20.7489 21.1643 20.7892 21.1401 20.8375 21.1159C20.8375 21.1482 20.8375 21.1884 20.8214 21.2368L20.8214 21.2287Z" fill="#4965FA"/>
<path d="M23.6804 40.236C23.7368 40.2119 23.7932 40.2119 23.8496 40.2119C23.8334 40.2441 23.8254 40.2924 23.8093 40.2924C23.769 40.2924 23.7207 40.2683 23.6804 40.236Z" fill="#4965FA"/>
<path d="M10.8585 81.0939C10.9068 81.11 10.9391 81.1261 10.9793 81.1503C10.9632 81.1664 10.9391 81.1906 10.923 81.2067C10.8988 81.1744 10.8746 81.1342 10.8666 81.0859L10.8585 81.0939Z" fill="#4965FA"/>
<path d="M10.4074 64.4302C10.4074 64.4302 10.3188 64.4625 10.2705 64.4625C10.2705 64.4625 10.2544 64.4141 10.2544 64.39C10.3027 64.398 10.351 64.4061 10.4074 64.4302Z" fill="#4965FA"/>
<path d="M9.81149 47.8149C9.79538 47.8632 9.77927 47.8954 9.75511 47.9357L9.69873 47.8793C9.69873 47.8793 9.77122 47.831 9.81954 47.8229L9.81149 47.8149Z" fill="#4965FA"/>
<path d="M21.7234 52.2285C21.7556 52.1882 21.7878 52.164 21.82 52.1399C21.8281 52.164 21.8442 52.1962 21.8523 52.2204C21.812 52.2204 21.7637 52.2365 21.7234 52.2204L21.7234 52.2285Z" fill="#4965FA"/>
<path d="M6.21142 83.8C6.19531 83.7598 6.21142 83.7115 6.21142 83.6712C6.23558 83.6792 6.2678 83.6953 6.29196 83.7034C6.2678 83.7356 6.25169 83.7678 6.20337 83.8L6.21142 83.8Z" fill="#4965FA"/>
<path d="M19.7341 64.1564C19.7341 64.1564 19.8227 64.1242 19.871 64.1242C19.871 64.1242 19.8872 64.1725 19.8872 64.1967C19.8388 64.1886 19.7905 64.1805 19.7341 64.1564Z" fill="#4965FA"/>
<path d="M5.91333 76.4951C5.9536 76.479 6.00192 76.4951 6.04219 76.4951C6.03414 76.5192 6.01803 76.5515 6.00998 76.5756C5.97776 76.5515 5.94555 76.5354 5.91333 76.487L5.91333 76.4951Z" fill="#4965FA"/>
<path d="M15.5217 76.1568C15.5378 76.1971 15.5217 76.2454 15.5217 76.2857L15.4412 76.2535C15.4412 76.2535 15.4814 76.1891 15.5298 76.1568L15.5217 76.1568Z" fill="#4965FA"/>
<path d="M16.8506 50.0055C16.8506 50.0055 16.9392 49.9733 16.9875 49.9733C16.9875 49.9733 17.0036 50.0216 17.0036 50.0458C16.9553 50.0377 16.907 50.0297 16.8506 50.0055Z" fill="#4965FA"/>
<path d="M17.4386 66.6209C17.4386 66.6209 17.5111 66.5806 17.5594 66.5726C17.5594 66.5726 17.5755 66.6129 17.5836 66.629C17.5433 66.629 17.495 66.629 17.4386 66.629L17.4386 66.6209Z" fill="#4965FA"/>
<path d="M17.2292 57.1252C17.1809 57.1252 17.1406 57.1172 17.1003 57.1091L17.1487 57.0367C17.1487 57.0367 17.205 57.093 17.2292 57.1333L17.2292 57.1252Z" fill="#4965FA"/>
<path d="M17.8575 73.7728C17.8172 73.7889 17.7689 73.7728 17.7286 73.7728C17.7286 73.7486 17.7367 73.7245 17.7447 73.6923C17.785 73.7084 17.8253 73.7325 17.8575 73.7648L17.8575 73.7728Z" fill="#4965FA"/>
<path d="M7.47578 47.9437C7.47578 47.9437 7.4033 47.984 7.35497 47.992C7.35497 47.992 7.33886 47.9517 7.33081 47.9356C7.37108 47.9356 7.4194 47.9356 7.46773 47.9437L7.47578 47.9437Z" fill="#4965FA"/>
<path d="M7.5 52.6634C7.54832 52.6795 7.58054 52.6956 7.61276 52.7197C7.61276 52.7197 7.58859 52.76 7.58054 52.7761C7.54832 52.7439 7.51611 52.7036 7.5 52.6553L7.5 52.6634Z" fill="#4965FA"/>
<path d="M14.3619 45.3906C14.3619 45.3906 14.4103 45.3262 14.4425 45.294C14.4586 45.3181 14.4747 45.3423 14.4908 45.3665C14.4505 45.3745 14.4103 45.3906 14.3619 45.3826L14.3619 45.3906Z" fill="#4965FA"/>
<path d="M9.79529 50.1988C9.84361 50.1988 9.87583 50.223 9.9161 50.2391C9.89194 50.2633 9.85972 50.2955 9.83556 50.3196C9.81945 50.2874 9.80334 50.2472 9.79529 50.1988Z" fill="#4965FA"/>
<path d="M24.0106 49.772C24.0106 49.772 24.0589 49.7075 24.0912 49.6753C24.1073 49.6995 24.1234 49.7236 24.1395 49.7478C24.0992 49.7559 24.0589 49.772 24.0106 49.7639L24.0106 49.772Z" fill="#4965FA"/>
<path d="M25.855 33.0036C25.855 33.0036 25.9275 32.9633 25.9758 32.9553C25.9758 32.9553 25.9919 32.9955 26 33.0117C25.9597 33.0117 25.9114 33.0117 25.863 33.0036L25.855 33.0036Z" fill="#4965FA"/>
<path d="M4.90662 45.6483C4.95494 45.6483 4.98716 45.6725 5.02743 45.6886C4.99521 45.7047 4.96299 45.7208 4.93078 45.7208C4.93078 45.7208 4.91467 45.6806 4.91467 45.6483L4.90662 45.6483Z" fill="#4965FA"/>
<path d="M9.01414 26.4234C9.0383 26.4637 9.0383 26.504 9.0383 26.5523C9.00608 26.5362 8.98192 26.5281 8.94971 26.512C8.96581 26.4798 8.97387 26.4557 9.01414 26.4234Z" fill="#4965FA"/>
<path d="M22.6093 76.0118C22.6093 76.0118 22.6737 76.0118 22.7059 76.0279C22.6978 76.0521 22.6817 76.0843 22.6737 76.1085C22.6495 76.0762 22.6254 76.0521 22.6173 76.0118L22.6093 76.0118Z" fill="#4965FA"/>
<path d="M11.5108 97.967C11.5108 98.0153 11.5028 98.0476 11.4867 98.0878C11.4625 98.0717 11.4303 98.0556 11.4061 98.0315C11.4383 98.0073 11.4706 97.9831 11.5108 97.967Z" fill="#4965FA"/>
<path d="M11.5109 28.8397C11.4626 28.8397 11.4304 28.8397 11.3901 28.8236C11.4062 28.8074 11.4143 28.7833 11.4304 28.7672C11.4626 28.7913 11.4948 28.8074 11.5109 28.8397Z" fill="#4965FA"/>
<path d="M11.6486 33.6077C11.608 33.5914 11.5836 33.5752 11.5592 33.5508C11.5836 33.5427 11.6161 33.5264 11.6405 33.5183C11.6405 33.5508 11.6567 33.5752 11.6405 33.6077L11.6486 33.6077Z" fill="#4965FA"/>
<path d="M9.4491 40.7595C9.49742 40.7595 9.52964 40.7676 9.56991 40.7757C9.5538 40.7918 9.54574 40.8159 9.52964 40.832C9.49742 40.8079 9.4652 40.7918 9.4491 40.7595Z" fill="#4965FA"/>
<path d="M13.3962 14.1806C13.3962 14.1806 13.3962 14.2375 13.3962 14.27C13.3718 14.2619 13.3393 14.2456 13.3149 14.2375C13.3393 14.2213 13.3556 14.205 13.4043 14.1806L13.3962 14.1806Z" fill="#4965FA"/>
<path d="M13.6049 90.6854C13.6455 90.7017 13.6699 90.7179 13.6942 90.7423C13.6699 90.7504 13.6374 90.7667 13.613 90.7748C13.613 90.7423 13.5967 90.7179 13.613 90.6854L13.6049 90.6854Z" fill="#4965FA"/>
<path d="M14.2331 38.2064C14.2331 38.2064 14.1848 38.2628 14.1526 38.2789C14.1365 38.2628 14.1284 38.2387 14.1123 38.2226C14.1445 38.2145 14.1848 38.2064 14.2331 38.2064Z" fill="#4965FA"/>
<path d="M8.33759 76.4951C8.33759 76.4951 8.33759 76.4382 8.33759 76.4057C8.36197 76.4138 8.39447 76.4301 8.41884 76.4382C8.39447 76.4544 8.37822 76.4707 8.32947 76.4951L8.33759 76.4951Z" fill="#4965FA"/>
<path d="M14.676 54.7816C14.7243 54.7816 14.7566 54.7816 14.7968 54.7977C14.7807 54.8138 14.7727 54.838 14.7566 54.8541C14.7243 54.8299 14.6921 54.8138 14.676 54.7816Z" fill="#4965FA"/>
<path d="M15.3043 69.0532C15.264 69.0774 15.2157 69.0774 15.1754 69.0693L15.1754 69.0291C15.2157 69.0291 15.264 69.0291 15.3043 69.0452L15.3043 69.0532Z" fill="#4965FA"/>
<path d="M15.8198 83.4215C15.7795 83.4457 15.7312 83.4457 15.6909 83.4376L15.6909 83.3974C15.7312 83.3974 15.7795 83.3974 15.8198 83.4135L15.8198 83.4215Z" fill="#4965FA"/>
<path d="M5.5671 62.1832C5.5671 62.1832 5.51878 62.2396 5.48656 62.2557C5.47045 62.2396 5.4624 62.2154 5.44629 62.1993C5.4785 62.1912 5.51877 62.1832 5.5671 62.1832Z" fill="#4965FA"/>
<path d="M16.15 93.1426C16.1017 93.1426 16.0694 93.1346 16.0292 93.1265C16.0453 93.1104 16.0533 93.0863 16.0694 93.0702C16.1017 93.0943 16.1339 93.1104 16.15 93.1426Z" fill="#4965FA"/>
<path d="M16.0693 26.2141C16.1096 26.1899 16.1579 26.1899 16.1982 26.1979L16.1982 26.2382C16.1579 26.2382 16.1096 26.2382 16.0693 26.2221L16.0693 26.2141Z" fill="#4965FA"/>
<path d="M16.3271 33.3982C16.3674 33.374 16.4157 33.374 16.456 33.3821L16.456 33.4224C16.4157 33.4224 16.3674 33.4224 16.3271 33.4063L16.3271 33.3982Z" fill="#4965FA"/>
<path d="M16.7943 47.6377C16.8346 47.6135 16.8829 47.6135 16.9232 47.6216L16.9232 47.6619C16.8829 47.6619 16.8346 47.6619 16.7943 47.6458L16.7943 47.6377Z" fill="#4965FA"/>
<path d="M5.47848 59.8394C5.47848 59.8394 5.43015 59.8958 5.39794 59.9119C5.38183 59.8958 5.37377 59.8717 5.35767 59.8555C5.38988 59.8475 5.43015 59.8394 5.47848 59.8394Z" fill="#4965FA"/>
<path d="M5.11597 52.7439C5.16429 52.7439 5.19651 52.7439 5.23678 52.76C5.22067 52.7761 5.21261 52.8002 5.19651 52.8163C5.16429 52.7922 5.13207 52.7761 5.11597 52.7439Z" fill="#4965FA"/>
<path d="M4.64892 38.6172C4.64892 38.6172 4.63281 38.5608 4.63281 38.5447C4.67308 38.5528 4.72141 38.5608 4.76168 38.5689C4.72946 38.585 4.69724 38.6091 4.64892 38.6172Z" fill="#4965FA"/>
<path d="M4.67293 36.2332C4.62461 36.2332 4.59239 36.2252 4.55212 36.2171C4.56823 36.201 4.57629 36.1768 4.59239 36.1607C4.62461 36.1849 4.65683 36.201 4.67293 36.2332Z" fill="#4965FA"/>
<path d="M18.0676 80.9973C18.027 80.981 18.0026 80.9648 17.9783 80.9404C18.0026 80.9323 18.0351 80.916 18.0595 80.9079C18.0595 80.9404 18.0758 80.9648 18.0595 80.9973L18.0676 80.9973Z" fill="#4965FA"/>
<path d="M18.3251 88.1806C18.3251 88.1806 18.3251 88.2375 18.3251 88.27C18.3008 88.2619 18.2683 88.2456 18.2439 88.2375C18.2683 88.2213 18.2845 88.205 18.3333 88.1806L18.3251 88.1806Z" fill="#4965FA"/>
<path d="M19.5245 56.9964C19.5729 56.9964 19.6051 57.0044 19.6453 57.0125C19.6292 57.0286 19.6212 57.0527 19.6051 57.0688C19.5729 57.0447 19.5406 57.0286 19.5245 56.9964Z" fill="#4965FA"/>
<path d="M20.6763 88.1089C20.7246 88.1089 20.7568 88.117 20.7971 88.125C20.781 88.1411 20.7729 88.1653 20.7568 88.1814C20.7246 88.1572 20.6924 88.1411 20.6763 88.1089Z" fill="#4965FA"/>
<path d="M2.68447 48.1853C2.64384 48.1691 2.61947 48.1528 2.59509 48.1284C2.61947 48.1203 2.65197 48.1041 2.67634 48.0959C2.67634 48.1284 2.69259 48.1528 2.67634 48.1853L2.68447 48.1853Z" fill="#4965FA"/>
<path d="M1.8783 26.769C1.91892 26.7853 1.9433 26.8015 1.96767 26.8259C1.9433 26.834 1.9108 26.8503 1.88642 26.8584C1.88642 26.8259 1.87017 26.8015 1.88642 26.769L1.8783 26.769Z" fill="#4965FA"/>
<path d="M22.7871 78.4031C22.7871 78.4031 22.7871 78.46 22.7871 78.4925C22.7627 78.4844 22.7302 78.4681 22.7058 78.46C22.7302 78.4437 22.7464 78.4275 22.7952 78.4031L22.7871 78.4031Z" fill="#4965FA"/>
<path d="M23.5926 100.165C23.5926 100.165 23.5926 100.222 23.5926 100.254C23.5682 100.246 23.5357 100.23 23.5114 100.222C23.5357 100.206 23.552 100.189 23.6007 100.165L23.5926 100.165Z" fill="#4965FA"/>
<path d="M23.6401 37.9004C23.6804 37.8762 23.7287 37.8762 23.769 37.8843L23.769 37.9246C23.7287 37.9246 23.6804 37.9246 23.6401 37.9085L23.6401 37.9004Z" fill="#4965FA"/>
<path d="M23.9463 47.3477C23.9946 47.3477 24.0268 47.3557 24.0671 47.3638C24.051 47.3799 24.0429 47.4041 24.0268 47.4202C23.9946 47.396 23.9624 47.3799 23.9463 47.3477Z" fill="#4965FA"/>
<path d="M1.11403 71.9848C1.07341 71.9686 1.04903 71.9523 1.02466 71.9279C1.04903 71.9198 1.08153 71.9036 1.10591 71.8954C1.10591 71.9279 1.12216 71.9523 1.10591 71.9848L1.11403 71.9848Z" fill="#4965FA"/>
<path d="M24.1886 52.1801C24.148 52.1639 24.1236 52.1476 24.0992 52.1232C24.1236 52.1151 24.1561 52.0989 24.1805 52.0907C24.1805 52.1232 24.1967 52.1476 24.1805 52.1801L24.1886 52.1801Z" fill="#4965FA"/>
<path d="M25.3879 85.6606C25.3879 85.6606 25.4363 85.6042 25.4685 85.5881C25.4846 85.6042 25.4926 85.6284 25.5087 85.6445C25.4765 85.6525 25.4363 85.6606 25.3879 85.6606Z" fill="#4965FA"/>
<path d="M0.517212 55.2398C0.557837 55.2561 0.582212 55.2723 0.606587 55.2967C0.582212 55.3048 0.549712 55.3211 0.525337 55.3292C0.525337 55.2967 0.509087 55.2723 0.525337 55.2398L0.517212 55.2398Z" fill="#4965FA"/>
<path d="M24.9207 73.636C24.9207 73.636 24.969 73.5796 25.0012 73.5635C25.0012 73.5635 25.0173 73.5796 25.0334 73.5957C25.0012 73.6118 24.969 73.636 24.9287 73.636L24.9207 73.636Z" fill="#4965FA"/>
<path d="M24.6228 66.4115C24.6228 66.4115 24.6953 66.3954 24.7356 66.3954C24.7356 66.4115 24.7356 66.4357 24.7356 66.4518C24.7033 66.4437 24.6711 66.4357 24.6309 66.4115L24.6228 66.4115Z" fill="#4965FA"/>
<path d="M2.09583 33.9378C2.09583 33.9378 2.16831 33.9217 2.20858 33.9217C2.20858 33.9378 2.20858 33.962 2.20858 33.9781C2.17637 33.97 2.14415 33.962 2.10388 33.9378L2.09583 33.9378Z" fill="#4965FA"/>
<path d="M19.1219 42.7972C19.1219 42.7972 19.0897 42.8455 19.0655 42.8697C19.0494 42.8455 19.0333 42.8214 19.0172 42.7972C19.0494 42.7972 19.0816 42.7972 19.1219 42.7972Z" fill="#4965FA"/>
<path d="M5.20459 55.1279C5.25291 55.1279 5.28513 55.1279 5.3254 55.144L5.30929 55.2004C5.30929 55.2004 5.23681 55.1601 5.20459 55.1279Z" fill="#4965FA"/>
<path d="M14.9741 64.2611C15.0224 64.2611 15.0547 64.2611 15.0949 64.2772L15.0788 64.3336C15.0788 64.3336 15.0063 64.2933 14.9741 64.2611Z" fill="#4965FA"/>
</svg>
